<svg width="48" height="48" viewBox="0 0 48 48" fill="none" xmlns="http://www.w3.org/2000/svg">
<path fill-rule="evenodd" clip-rule="evenodd" d="M41.9847 17.9923C41.9847 22.092 40.4853 25.4891 38.3048 28.897L26.4892 46.662C25.3026 48.446 22.682 48.446 21.4955 46.662L9.68039 28.8977C7.49936 25.4891 6 22.0923 6 17.9923C6 8.05545 14.0554 0 23.9923 0C33.9292 0 41.9847 8.05545 41.9847 17.9923ZM23.9923 23.9898C27.3046 23.9898 29.9898 21.3046 29.9898 17.9923C29.9898 14.68 27.3046 11.9949 23.9923 11.9949C20.68 11.9949 17.9949 14.68 17.9949 17.9923C17.9949 21.3046 20.68 23.9898 23.9923 23.9898Z" fill="#8AD7E1"/>
</svg>
